{
	"asset":{
		"generator":"Khronos glTF Blender I/O v3.6.27",
		"version":"2.0"
	},
	"extensionsUsed":[
		"KHR_materials_specular",
		"KHR_materials_ior"
	],
	"scene":0,
	"scenes":[
		{
			"name":"Scene",
			"nodes":[
				0
			]
		}
	],
	"nodes":[
		{
			"mesh":0,
			"name":"parrotFish",
			"rotation":[
				0.7071068286895752,
				0,
				0,
				0.7071068286895752
			]
		}
	],
	"materials":[
		{
			"doubleSided":true,
			"extensions":{
				"KHR_materials_specular":{
					"specularColorFactor":[
						0,
						0,
						0
					]
				},
				"KHR_materials_ior":{
					"ior":1.4500000476837158
				}
			},
			"name":"mat_0",
			"pbrMetallicRoughness":{
				"baseColorTexture":{
					"index":0
				},
				"metallicFactor":0.7071428298950195
			}
		}
	],
	"meshes":[
		{
			"name":"parrotFish",
			"primitives":[
				{
					"attributes":{
						"POSITION":0,
						"NORMAL":1,
						"TEXCOORD_0":2
					},
					"indices":3,
					"material":0
				}
			]
		}
	],
	"textures":[
		{
			"sampler":0,
			"source":0
		}
	],
	"images":[
		{
			"mimeType":"image/png",
			"name":"parrotFish",
			"uri":"parrotFish.png"
		}
	],
	"accessors":[
		{
			"bufferView":0,
			"componentType":5126,
			"count":1195187,
			"max":[
				77.842041015625,
				43.6513671875,
				49.981746673583984
			],
			"min":[
				-131.8705291748047,
				-43.4207763671875,
				-49.2862434387207
			],
			"type":"VEC3"
		},
		{
			"bufferView":1,
			"componentType":5126,
			"count":1195187,
			"type":"VEC3"
		},
		{
			"bufferView":2,
			"componentType":5126,
			"count":1195187,
			"type":"VEC2"
		},
		{
			"bufferView":3,
			"componentType":5125,
			"count":1195878,
			"type":"SCALAR"
		}
	],
	"bufferViews":[
		{
			"buffer":0,
			"byteLength":14342244,
			"byteOffset":0,
			"target":34962
		},
		{
			"buffer":0,
			"byteLength":14342244,
			"byteOffset":14342244,
			"target":34962
		},
		{
			"buffer":0,
			"byteLength":9561496,
			"byteOffset":28684488,
			"target":34962
		},
		{
			"buffer":0,
			"byteLength":4783512,
			"byteOffset":38245984,
			"target":34963
		}
	],
	"samplers":[
		{
			"magFilter":9729,
			"minFilter":9987
		}
	],
	"buffers":[
		{
			"byteLength":43029496,
			"uri":"parrotFish.bin"
		}
	]
}
